<?xml version="1.0" encoding="UTF-8"?>
<!DOCTYPE svg PUBLIC "-//W3C//DTD SVG 1.1//EN" "http://www.w3.org/Graphics/SVG/1.1/DTD/svg11.dtd">
<svg xmlns="http://www.w3.org/2000/svg" version="1.1" width="512px" height="378px" style="shape-rendering:geometricPrecision; text-rendering:geometricPrecision; image-rendering:optimizeQuality; fill-rule:evenodd; clip-rule:evenodd" xmlns:xlink="http://www.w3.org/1999/xlink">
<g><path style="opacity:0.989" fill="#282c31" d="M 180.5,-0.5 C 185.833,-0.5 191.167,-0.5 196.5,-0.5C 209.682,7.21706 213.182,18.2171 207,32.5C 163.194,77.3058 119.028,121.806 74.5,166C 214.167,166.333 353.833,166.667 493.5,167C 496.637,167.601 499.637,168.601 502.5,170C 506.085,173.078 509.085,176.578 511.5,180.5C 511.5,185.833 511.5,191.167 511.5,196.5C 507.432,204.717 500.766,209.217 491.5,210C 352.5,210.333 213.5,210.667 74.5,211C 119.028,255.194 163.194,299.694 207,344.5C 212.876,358.704 209.376,369.704 196.5,377.5C 191.167,377.5 185.833,377.5 180.5,377.5C 175.398,373.574 170.398,369.408 165.5,365C 116.333,314.5 66.5,264.667 16,215.5C 10.2326,209.244 4.73262,202.911 -0.5,196.5C -0.5,191.167 -0.5,185.833 -0.5,180.5C 1.55755,178.073 3.39089,175.407 5,172.5C 58.3377,119.162 111.838,65.6623 165.5,12C 170.398,7.59219 175.398,3.42553 180.5,-0.5 Z"/></g>
</svg>
